HIERARCHY
ROOT hip
{
	OFFSET 0.000000 0.000000 0.000000 
	CHANNELS 6 Xposition Yposition Zposition Xrotation Zrotation Yrotation
	JOINT abdomen
	{
		OFFSET 0.000000 3.402643 0.000000 
		CHANNELS 3 Xrotation Zrotation Yrotation
		JOINT chest
		{
			OFFSET 0.000000 8.438565 -0.680529 
			CHANNELS 3 Xrotation Zrotation Yrotation
			JOINT neck
			{
				OFFSET 0.000000 10.207942 -0.272212 
				CHANNELS 3 Xrotation Zrotation Yrotation
				JOINT head
				{
					OFFSET 0.000000 3.130431 0.000000 
					CHANNELS 3 Xrotation Zrotation Yrotation
					End Site
					{
						OFFSET 0.000000 3.130435 0.000000 
					}
				}
			}
			JOINT lCollar
			{
				OFFSET 3.470700 6.669187 -0.816635 
				CHANNELS 3 Yrotation Zrotation Xrotation
				JOINT lShldr
				{
					OFFSET 3.198488 0.000000 0.000000 
					CHANNELS 3 Zrotation Yrotation Xrotation
					JOINT lForeArm
					{
						OFFSET 10.139888 0.000000 0.000000 
						CHANNELS 3 Yrotation Zrotation Xrotation
						JOINT lHand
						{
							OFFSET 8.370511 0.000000 0.000000 
							CHANNELS 3 Zrotation Yrotation Xrotation
							End Site
							{
								OFFSET 4.083176 0.000000 0.000000 
							}
						}
					}
				}
			}
			JOINT rCollar
			{
				OFFSET -3.470700 6.669187 -0.816635 
				CHANNELS 3 Yrotation Zrotation Xrotation
				JOINT rShldr
				{
					OFFSET -3.198488 0.000000 0.000000 
					CHANNELS 3 Zrotation Yrotation Xrotation
					JOINT rForeArm
					{
						OFFSET -10.139888 0.000000 0.000000 
						CHANNELS 3 Yrotation Zrotation Xrotation
						JOINT rHand
						{
							OFFSET -8.370511 0.000000 0.000000 
							CHANNELS 3 Zrotation Yrotation Xrotation
							End Site
							{
								OFFSET -4.083176 0.000000 0.000000 
							}
						}
					}
				}
			}
		}
	}
	JOINT lThigh
	{
		OFFSET 5.308129 -1.633274 1.361059 
		CHANNELS 3 Xrotation Zrotation Yrotation
		JOINT lShin
		{
			OFFSET -2.041588 -20.007561 0.000000 
			CHANNELS 3 Xrotation Zrotation Yrotation
			JOINT lFoot
			{
				OFFSET 0.000000 -19.190928 -1.224953 
				CHANNELS 3 Xrotation Yrotation Zrotation
				End Site
				{
					OFFSET 0.000000 -2.449906 4.627600 
				}
			}
		}
	}
	JOINT rThigh
	{
		OFFSET -5.308129 -1.633274 1.361059 
		CHANNELS 3 Xrotation Zrotation Yrotation
		JOINT rShin
		{
			OFFSET 2.041588 -20.007561 0.000000 
			CHANNELS 3 Xrotation Zrotation Yrotation
			JOINT rFoot
			{
				OFFSET 0.000000 -19.190928 -1.224953 
				CHANNELS 3 Xrotation Yrotation Zrotation
				End Site
				{
					OFFSET 0.000000 -2.449906 4.627600 
				}
			}
		}
	}
}
MOTION
Frames: 18
Frame Time: 0.016667
-0.000752 49.629135 1.368143 0.000000 0.000000 0.000000 28.987394 -0.537101 -0.322343 -5.648581 4.004747 -3.827436 -37.430004 -1.445290 0.322163 5.588009 2.050767 -0.214706 -5.858140 -12.378829 -0.037955 -86.016113 -35.506931 -2.209010 -0.687263 -5.954307 6.037358 0.638549 0.088152 -6.991632 12.787541 -3.632739 -0.085538 104.688164 53.615166 43.514683 55.533745 2.303102 4.195850 -26.428913 10.436651 -5.675775 2.749148 3.774003 0.109627 -2.763232 -3.816578 0.080046 -0.029160 -0.036619 -0.013895 -1.590230 -5.394426 -0.417063 6.413057 4.831658 0.553688 -4.187981 0.217881 0.293090 
-0.000752 49.629135 1.368143 0.000000 0.000000 0.000000 29.251068 -0.537101 -0.322343 -5.648581 4.004747 -3.827436 -37.517899 -1.445290 0.322163 5.588009 2.050767 -0.214706 -5.858140 -12.378829 -0.037955 -86.016113 -35.506931 -2.209010 -0.687263 -5.954307 6.037358 0.638549 0.088152 -6.991632 12.787541 -3.632739 -0.085538 105.910713 54.338169 44.461426 57.555683 2.260362 4.183348 -26.153429 7.637946 -5.641044 2.749148 3.774003 0.109627 -2.763232 -3.816578 0.080046 -0.029160 -0.036619 -0.013895 -1.590230 -5.394426 -0.417063 6.413057 4.831658 0.553688 -4.187981 0.217881 0.293090 
-0.000752 49.629135 1.368143 0.000000 0.000000 0.000000 29.514744 -0.537101 -0.322343 -5.648581 4.004747 -3.827436 -37.605789 -1.445290 0.322163 5.588009 2.050767 -0.214706 -5.858140 -12.378829 -0.037955 -86.016113 -35.506931 -2.209010 -0.687263 -5.954307 6.037358 0.638549 0.088152 -6.991632 12.787541 -3.632739 -0.085538 107.174431 55.056232 45.450714 59.579243 2.217207 4.167929 -25.873209 4.844432 -5.618944 2.749148 3.774003 0.109627 -2.763232 -3.816578 0.080046 -0.029160 -0.036619 -0.013895 -1.590230 -5.394426 -0.417063 6.413057 4.831658 0.553688 -4.187981 0.217881 0.293090 
-0.000752 49.629135 1.368143 0.000000 0.000000 0.000000 29.778412 -0.537101 -0.322343 -5.648581 4.004747 -3.827436 -37.693676 -1.445290 0.322163 5.588009 2.050767 -0.214706 -5.858140 -12.378829 -0.037955 -86.016113 -35.506931 -2.209010 -0.687263 -5.954307 6.037358 0.638549 0.088152 -6.991632 12.787541 -3.632739 -0.085538 108.297798 55.702057 46.381863 61.507145 2.167733 4.157326 -25.509901 2.055941 -5.599313 2.749148 3.774003 0.109627 -2.763232 -3.816578 0.080046 -0.029160 -0.036619 -0.013895 -1.590230 -5.394426 -0.417063 6.413057 4.831658 0.553688 -4.187981 0.217881 0.293090 
-0.000752 49.629135 1.368143 0.000000 0.000000 0.000000 30.041992 -0.537101 -0.312578 -5.648581 4.004747 -3.827436 -37.781567 -1.445290 0.322163 5.588009 2.050767 -0.214706 -5.858140 -12.378829 -0.037955 -86.016113 -35.506931 -2.209010 -0.687263 -5.954307 6.037358 0.638549 0.088152 -6.991632 12.787541 -3.632739 -0.085538 109.462021 56.328358 47.349503 63.437206 2.126594 4.149396 -25.151598 -0.739393 -5.596558 2.749148 3.774003 0.109627 -2.763232 -3.816578 0.080046 -0.029160 -0.036619 -0.013895 -1.590230 -5.394426 -0.417063 6.413057 4.831658 0.553688 -4.187981 0.217881 0.293090 
-0.000752 49.629135 1.368143 0.000000 0.000000 0.000000 29.778412 -0.537101 -0.322343 -5.648581 4.004747 -3.827436 -36.639179 -1.435523 0.331927 5.588009 2.050767 -0.214706 -5.858140 -12.378829 -0.037955 -86.016113 -35.506931 -2.209010 -0.687263 -5.954307 6.037358 0.638549 0.088152 -6.991632 12.787541 -3.632739 -0.085538 108.006332 55.541489 46.171879 61.071514 2.188582 4.162936 -25.562162 2.576968 -5.590000 2.749148 3.774003 0.109627 -2.763232 -3.816578 0.080046 -0.029160 -0.036619 -0.013895 -1.590230 -5.394426 -0.417063 6.413057 4.831658 0.553688 -4.187981 0.217881 0.293090 
-0.000752 49.629135 1.368143 0.000000 0.000000 0.000000 29.514744 -0.537101 -0.322343 -5.648581 4.004747 -3.827436 -35.496845 -1.435521 0.341690 5.588009 2.050767 -0.214706 -5.858140 -12.378829 -0.037955 -86.016113 -35.506931 -2.209010 -0.687263 -5.954307 6.037358 0.638549 0.088152 -6.991632 12.787541 -3.632739 -0.085538 106.620094 54.738617 45.065327 58.690933 2.237672 4.180147 -25.985092 5.897921 -5.608131 2.749148 3.774003 0.109627 -2.763232 -3.816578 0.080046 -0.029160 -0.036619 -0.013895 -1.590230 -5.394426 -0.417063 6.413057 4.831658 0.553688 -4.187981 0.217881 0.293090 
-0.000752 49.629135 1.368143 0.000000 0.000000 0.000000 29.163176 -0.537101 -0.322343 -5.648581 4.004747 -3.827436 -34.344929 -1.425753 0.361216 5.588009 2.050767 -0.214706 -5.858140 -12.378829 -0.037955 -86.016113 -35.506931 -2.209010 -0.687263 -5.954307 6.037358 0.638549 0.088152 -6.991632 12.787541 -3.632739 -0.085538 105.234566 53.937656 43.969067 56.411449 2.281725 4.188704 -26.325312 9.305496 -5.650519 2.749148 3.774003 0.109627 -2.763232 -3.816578 0.080046 -0.029160 -0.036619 -0.013895 -1.590230 -5.394426 -0.417063 6.413057 4.831658 0.553688 -4.187981 0.217881 0.293090 
-0.000752 49.629135 1.368143 0.000000 0.000000 0.000000 28.811617 -0.537101 -0.322343 -5.648581 4.004747 -3.827436 -33.202660 -1.435517 0.370977 5.588009 2.050767 -0.214706 -5.858140 -12.378829 -0.037955 -86.016113 -35.506931 -2.209010 -0.687263 -5.954307 6.037358 0.638549 0.088152 -6.991632 12.787541 -3.632739 -0.085538 103.896858 53.119278 42.918701 54.124527 2.330791 4.206642 -26.662975 12.723688 -5.709466 2.749148 3.774003 0.109627 -2.763232 -3.816578 0.080046 -0.029160 -0.036619 -0.013895 -1.590230 -5.394426 -0.417063 6.413057 4.831658 0.553688 -4.187981 0.217881 0.293090 
-0.000752 49.629135 1.368143 0.000000 0.000000 0.000000 28.547943 -0.537101 -0.322343 -5.648581 4.004747 -3.827436 -32.060261 -1.425750 0.380742 5.588009 2.050767 -0.214706 -5.858140 -12.378829 -0.037955 -86.016113 -35.506931 -2.209010 -0.687263 -5.954307 6.037358 0.638549 0.088152 -6.991632 12.787541 -3.632739 -0.085538 102.671318 52.211681 41.924599 51.750477 2.383849 4.225234 -27.019054 16.132425 -5.872783 2.749148 3.774003 0.109627 -2.763232 -3.816578 0.080046 -0.029160 -0.036619 -0.013895 -1.590230 -5.394426 -0.417063 6.413057 4.831658 0.553688 -4.187981 0.217881 0.293090 
-0.000752 49.629135 1.368143 0.000000 0.000000 0.000000 28.284271 -0.537101 -0.322343 -5.648581 4.004747 -3.827436 -30.917995 -1.435513 0.390747 5.588009 2.050767 -0.214706 -5.858140 -12.378829 -0.037955 -86.016113 -35.506931 -2.209010 -0.687263 -5.954307 6.037358 0.638549 0.088152 -6.991632 12.787541 -3.632739 -0.085538 101.489136 51.288929 40.983589 49.378170 2.434060 4.245708 -27.385767 19.532675 -6.059826 2.749148 3.774003 0.109627 -2.763232 -3.816578 0.080046 -0.029160 -0.036619 -0.013895 -1.590230 -5.394426 -0.417063 6.413057 4.831658 0.553688 -4.187981 0.217881 0.293090 
-0.000752 49.629135 1.368143 0.000000 0.000000 0.000000 27.932707 -0.537101 -0.322343 -5.648581 4.004747 -3.827436 -29.785597 -1.425745 0.410272 5.588009 2.050767 -0.214706 -5.858140 -12.378829 -0.037955 -86.016113 -35.506931 -2.209010 -0.687263 -5.954307 6.037358 0.638549 0.088152 -6.991632 12.787541 -3.632739 -0.085538 100.320786 50.449001 40.152725 47.007240 2.481682 4.266696 -27.763857 22.856178 -6.214726 2.749148 3.774003 0.109627 -2.763232 -3.816578 0.080046 -0.029160 -0.036619 -0.013895 -1.590230 -5.394426 -0.417063 6.413057 4.831658 0.553688 -4.187981 0.217881 0.293090 
-0.000752 49.629135 1.368143 0.000000 0.000000 0.000000 27.581053 -0.537101 -0.312578 -5.648581 4.004747 -3.827436 -28.643335 -1.435508 0.420035 5.588009 2.050767 -0.214706 -5.858140 -12.378829 -0.037955 -86.016113 -35.506931 -2.209010 -0.687263 -5.954307 6.037358 0.638549 0.088152 -6.991632 12.787541 -3.632739 -0.085538 99.190079 49.606068 39.374504 44.637009 2.534539 4.292362 -28.162987 26.174427 -6.396939 2.749148 3.774003 0.109627 -2.763232 -3.816578 0.080046 -0.029160 -0.036619 -0.013895 -1.590230 -5.394426 -0.417063 6.413057 4.831658 0.553688 -4.187981 0.217881 0.293090 
-0.000752 49.629135 1.368143 0.000000 0.000000 0.000000 27.317381 -0.537101 -0.312578 -5.648581 4.004747 -3.827436 -27.500929 -1.425741 0.429797 5.588009 2.050767 -0.214706 -5.858140 -12.378829 -0.037955 -86.016113 -35.506931 -2.209010 -0.687263 -5.954307 6.037358 0.638549 0.088152 -6.991632 12.787541 -3.632739 -0.085538 98.067902 48.678371 38.465595 42.258797 2.573352 4.319673 -28.497629 29.509497 -6.520410 2.749148 3.774003 0.109627 -2.763232 -3.816578 0.080046 -0.029160 -0.036619 -0.013895 -1.590230 -5.394426 -0.417063 6.413057 4.831658 0.553688 -4.187981 0.217881 0.293090 
-0.000752 49.629135 1.368143 0.000000 0.000000 0.000000 27.053711 -0.537101 -0.312578 -5.648581 4.004747 -3.827436 -26.358669 -1.435505 0.439560 5.588009 2.050767 -0.214706 -5.858140 -12.378829 -0.037955 -86.016113 -35.506931 -2.209010 -0.687263 -5.954307 6.037358 0.638549 0.088152 -6.991632 12.787541 -3.632739 -0.085538 96.990425 47.730614 37.592922 39.890663 2.617424 4.351034 -28.846552 32.838223 -6.661670 2.749148 3.774003 0.109627 -2.763232 -3.816578 0.080046 -0.029160 -0.036619 -0.013895 -1.590230 -5.394426 -0.417063 6.413057 4.831658 0.553688 -4.187981 0.217881 0.293090 
-0.000752 49.629135 1.368143 0.000000 0.000000 0.000000 27.229492 -0.537101 -0.312578 -5.648581 4.004747 -3.827436 -27.061794 -1.435505 0.439560 5.588009 2.050767 -0.214706 -5.858140 -12.378829 -0.037955 -86.016113 -35.506931 -2.209010 -0.687263 -5.954307 6.037358 0.638549 0.088152 -6.991632 12.787541 -3.632739 -0.085538 97.585823 48.246632 38.071888 41.207294 2.595039 4.339680 -28.604158 30.994989 -6.617657 2.749148 3.774003 0.109627 -2.763232 -3.816578 0.080046 -0.029160 -0.036619 -0.013895 -1.590230 -5.394426 -0.417063 6.413057 4.831658 0.553688 -4.187981 0.217881 0.293090 
-0.000752 49.629135 1.368143 0.000000 0.000000 0.000000 27.405273 -0.537101 -0.312578 -5.648581 4.004747 -3.827436 -27.764673 -1.435507 0.429797 5.588009 2.050767 -0.214706 -5.858140 -12.378829 -0.037955 -86.016113 -35.506931 -2.209010 -0.687263 -5.954307 6.037358 0.638549 0.088152 -6.991632 12.787541 -3.632739 -0.085538 98.193146 48.758137 38.576118 42.523888 2.574016 4.323112 -28.354809 29.158186 -6.560679 2.749148 3.774003 0.109627 -2.763232 -3.816578 0.080046 -0.029160 -0.036619 -0.013895 -1.590230 -5.394426 -0.417063 6.413057 4.831658 0.553688 -4.187981 0.217881 0.293090 
-0.000752 49.629135 1.368143 0.000000 0.000000 0.000000 27.581148 -0.537101 -0.322343 -5.648581 4.004747 -3.827436 -28.379593 -1.425743 0.420035 5.588009 2.050767 -0.214706 -5.858140 -12.378829 -0.037955 -86.016113 -35.506931 -2.209010 -0.687263 -5.954307 6.037358 0.638549 0.088152 -6.991632 12.787541 -3.632739 -0.085538 98.813667 49.272923 38.985981 43.841576 2.541487 4.308300 -28.112673 27.240034 -6.436400 2.749148 3.774003 0.109627 -2.763232 -3.816578 0.080046 -0.029160 -0.036619 -0.013895 -1.590230 -5.394426 -0.417063 6.413057 4.831658 0.553688 -4.187981 0.217881 0.293090 
